:SAMPLES-PER-SECOND 30
:FULLY-SPECIFIED
:DEGREES
992
root  48.7117 38.1601 2.08514 29.0505 80.5783 33.1929
RightUpLeg  10.0342 0.817946 -10.7688
RightLeg  38.6855 6.79269 5.55289
RightFoot  -5.34247 -0.758252 14.3655
RightToes  -1.16417e-010 0 -3.6325e-017
Spine  8.02403 2.07463 -1.68477
Spine1  0.456791 2.82705 -6.72915
HEad  -21.6578 5.25196 -4.07673
LeftShoulder1  -1.12691 6.37869 -33.0201
LeftArm  6.00578 2.71544 -41.9808
LeftForeArm  29.0514 -15.0191 -7.49142
LeftHand  -0.0718897 8.41709 -0.937353
RightShoulder  -1.01206 -6.23175 30.535
RightArm  13.2404 -14.2014 44.2101
RightForeArm  32.6854 4.44478 6.60507
RightHand  0.0738184 -0.731809 1.91899
LeftUpLeg  -13.9265 5.58855 -7.26424
LeftLeg  19.2066 7.08182 2.78012
LeftFoot  -1.33619 -0.345965 4.04508
LeftToes  3.13772e-010 -3.14513e-011 3.96022e-013
993
root  49.5581 38.2538 1.9551 29.591 80.0606 33.5294
RightUpLeg  4.36471 2.0699 -11.1581
RightLeg  47.5409 5.5466 6.11301
RightFoot  1.98978 -1.40511 11.9778
RightToes  -1.16417e-010 0 -3.6325e-017
Spine  5.63489 1.75856 -3.4206
Spine1  4.03598 2.30765 -5.49316
HEad  -23.8963 6.39234 -4.6298
LeftShoulder1  -0.973818 5.97382 -33.2427
LeftArm  9.53991 -1.44321 -42.5359
LeftForeArm  24.6311 -16.9948 -6.68937
LeftHand  -0.0734939 8.3195 -0.939257
RightShoulder  -1.10099 -6.46177 30.6818
RightArm  16.464 -17.932 41.5173
RightForeArm  30.9435 8.02077 7.17558
RightHand  0.143933 1.14359 2.46271
LeftUpLeg  -12.5146 5.62087 -7.7002
LeftLeg  18.8405 7.54348 2.53189
LeftFoot  -2.68101 -0.302542 4.21001
LeftToes  3.13772e-010 -3.14513e-011 3.96022e-013
994
root  50.3039 38.3061 1.84008 30.1431 79.5086 34.3242
RightUpLeg  -0.455525 2.88304 -11.7524
RightLeg  54.2842 3.85544 5.37331
RightFoot  2.16515 -1.30945 11.1296
RightToes  -1.16417e-010 0 -3.6325e-017
Spine  5.42796 1.20318 -6.27108
Spine1  5.26342 1.07732 -3.47676
HEad  -22.8038 7.62969 -4.68846
LeftShoulder1  -0.95334 5.94588 -32.8654
LeftArm  13.118 -4.07894 -43.0863
LeftForeArm  20.2194 -19.7204 -5.34017
LeftHand  -0.118429 9.57863 -1.70536
RightShoulder  -1.01849 -6.28404 30.0795
RightArm  20.8664 -21.5397 39.4302
RightForeArm  26.8337 11.6189 7.10646
RightHand  0.179682 1.61541 2.85944
LeftUpLeg  -10.8494 5.42785 -8.09084
LeftLeg  18.5946 8.22673 2.21267
LeftFoot  -3.8957 -0.261198 4.36776
LeftToes  3.13772e-010 -3.14513e-011 3.96022e-013
995
root  51.0587 38.4057 1.72715 29.0529 79.8968 33.6534
RightUpLeg  -4.58293 3.00198 -11.4396
RightLeg  58.3858 2.86503 4.57316
RightFoot  1.28567 -0.979488 8.92432
RightToes  -1.16417e-010 0 -3.6325e-017
Spine  6.56141 0.329111 -7.45114
Spine1  4.66521 -0.248426 -2.2673
HEad  -23.5057 8.98537 -4.58833
LeftShoulder1  -0.919107 5.89065 -32.3373
LeftArm  14.2375 -5.87747 -43.2237
LeftForeArm  18.4439 -22.6957 -4.15226
LeftHand  -0.0357039 8.37866 0.389156
RightShoulder  -0.984602 -6.23639 29.4823
RightArm  24.4513 -24.5732 37.7575
RightForeArm  21.6791 13.9425 6.67395
RightHand  0.12119 2.04055 1.71187
LeftUpLeg  -8.73685 5.27544 -7.80498
LeftLeg  17.9252 8.22724 1.73801
LeftFoot  -5.07192 -0.209193 4.38061
LeftToes  3.13772e-010 -3.14513e-011 3.96022e-013
996
root  51.821 38.4863 1.61795 26.41 79.9103 31.5042
RightUpLeg  -8.30607 3.21478 -11.0554
RightLeg  59.8591 2.10566 3.45324
RightFoot  0.312667 -0.841133 8.24478
RightToes  -1.16417e-010 0 -3.6325e-017
Spine  7.08637 0.0318483 -7.35673
Spine1  4.95065 -0.624667 -2.14371
HEad  -23.2836 9.14076 -4.28552
LeftShoulder1  -0.832936 5.68206 -32.0733
LeftArm  13.8927 -8.60579 -43.3433
LeftForeArm  19.2004 -24.7175 -4.23989
LeftHand  -0.00340724 7.60013 1.78163
RightShoulder  -1.01764 -6.37201 28.9335
RightArm  24.3391 -27.0505 37.011
RightForeArm  20.5478 15.2099 5.95985
RightHand  0.141943 2.18003 2.00527
LeftUpLeg  -6.62518 5.67103 -7.43926
LeftLeg  17.446 8.2249 1.28812
LeftFoot  -6.08076 -0.181589 4.75764
LeftToes  3.13772e-010 -3.14513e-011 3.96022e-013
